<svg xmlns="http://www.w3.org/2000/svg" width="1200" height="300" viewBox="0 0 1200 300" font-family="Segoe UI, Helvetica, Arial, sans-serif">
  <defs>
    <linearGradient id="bg" x1="0" y1="0" x2="1" y2="1">
      <stop offset="0" stop-color="#0b0f14"></stop>
      <stop offset="1" stop-color="#111722"></stop>
    </linearGradient>
    <linearGradient id="xp" x1="0" y1="0" x2="1" y2="0">
      <stop offset="0" stop-color="#35e0a1"></stop>
      <stop offset="1" stop-color="#b785ff"></stop>
    </linearGradient>
    <pattern id="dots" width="26" height="26" patternUnits="userSpaceOnUse">
      <circle cx="2" cy="2" r="1.4" fill="#1b2430"></circle>
    </pattern>
  </defs>

  <rect x="1.5" y="1.5" width="1197" height="297" rx="16" fill="url(#bg)" stroke="#222d3b" stroke-width="3"></rect>
  <rect x="1.5" y="1.5" width="1197" height="297" rx="16" fill="url(#dots)"></rect>

  
  <circle cx="1040" cy="215" r="92" fill="#35e0a1" opacity="0.05">
    
  </circle>
  <circle cx="1040" cy="215" r="46" fill="#b785ff" opacity="0.07">
    
  </circle>

  
  <path d="M40 66 V40 H66" stroke="#35e0a1" stroke-width="3" fill="none"></path>
  <path d="M1160 234 V260 H1134" stroke="#35e0a1" stroke-width="3" fill="none"></path>
  <path d="M1134 40 H1160 V66" stroke="#2a3648" stroke-width="3" fill="none"></path>
  <path d="M66 260 H40 V234" stroke="#2a3648" stroke-width="3" fill="none"></path>

  
  <text x="72" y="97" font-family="Consolas, Menlo, monospace" font-size="22" letter-spacing="5" fill="#35e0a1">PLAYER ONE // @renmadz</text>
  <rect x="446" y="79" width="12" height="22" fill="#35e0a1">
    
  </rect>

  
  <text x="70" y="167" font-size="58" font-weight="800" letter-spacing="1" fill="#e9eef5">DARREN BJÖRN MADDARA</text>
  <text x="72" y="205" font-size="22" fill="#8b98a9">CS undergrad — crafting web &amp; windows apps</text>

  
  <text x="72" y="245" font-family="Consolas, Menlo, monospace" font-size="15" letter-spacing="3" fill="#8b98a9">XP · BS COMPUTER SCIENCE</text>
  <rect x="72" y="254" width="420" height="12" rx="6" fill="#1b2430"></rect>
  <rect x="72" y="254" width="0" height="12" rx="6" fill="url(#xp)">
    
  </rect>
  <text x="506" y="265" font-family="Consolas, Menlo, monospace" font-size="15" fill="#35e0a1">YEAR 3/4</text>

  
  <rect x="1008" y="46" width="122" height="56" rx="12" fill="#0f1d18" stroke="#35e0a1" stroke-width="2"></rect>
  <text x="1069" y="82" text-anchor="middle" font-family="Consolas, Menlo, monospace" font-size="26" font-weight="700" letter-spacing="2" fill="#35e0a1">LVL 03</text>
</svg>